<svg id="store-badge_app-store-uk"  width="119.66407" height="40" viewBox="0 0 119.66407 40" xmlns="http://www.w3.org/2000/svg"><g fill="none" fill-rule="evenodd"><g fill-rule="nonzero"><path d="M110.135 0H9.535c-.367 0-.73 0-1.095.002-.306.002-.61.008-.919.013C6.85.023 6.18.082 5.517.19a6.665 6.665 0 0 0-1.9.627A6.438 6.438 0 0 0 .193 5.521a12.993 12.993 0 0 0-.179 2.002c-.01.307-.01.615-.015.921V31.56c.005.31.006.61.015.921.008.671.068 1.34.18 2.002.11.663.32 1.306.624 1.905.303.598.701 1.143 1.179 1.614.473.477 1.02.875 1.618 1.179a6.7 6.7 0 0 0 1.901.63c.663.11 1.333.168 2.004.177.31.007.613.011.919.011.366.002.728.002 1.095.002h100.6c.36 0 .724 0 1.084-.002.304 0 .617-.004.922-.01.67-.01 1.338-.068 2-.178a6.804 6.804 0 0 0 1.908-.63A6.277 6.277 0 0 0 117.666 38a6.395 6.395 0 0 0 1.182-1.614c.302-.6.51-1.242.619-1.905.111-.661.173-1.33.185-2.002.004-.31.004-.61.004-.921.008-.364.008-.725.008-1.094V9.536c0-.366 0-.73-.008-1.092 0-.306 0-.614-.004-.92a13.507 13.507 0 0 0-.185-2.003 6.618 6.618 0 0 0-.62-1.903 6.466 6.466 0 0 0-2.798-2.8 6.768 6.768 0 0 0-1.908-.627c-.661-.11-1.33-.169-2-.176-.305-.005-.618-.011-.922-.013-.36-.002-.725-.002-1.084-.002z" fill="#A6A6A6"></path><path d="M8.445 39.125c-.305 0-.602-.004-.904-.01a12.687 12.687 0 0 1-1.87-.164 5.884 5.884 0 0 1-1.656-.548 5.406 5.406 0 0 1-1.397-1.016 5.32 5.32 0 0 1-1.02-1.397 5.722 5.722 0 0 1-.544-1.657 12.414 12.414 0 0 1-.166-1.875c-.007-.21-.015-.913-.015-.913v-23.1s.009-.692.015-.895a12.37 12.37 0 0 1 .165-1.872 5.755 5.755 0 0 1 .544-1.662c.26-.518.603-.99 1.015-1.398A5.565 5.565 0 0 1 5.667 1.05C6.287.95 6.915.895 7.543.887l.902-.012h102.769l.913.013c.623.007 1.244.061 1.858.162a5.938 5.938 0 0 1 1.671.548 5.594 5.594 0 0 1 2.415 2.42c.26.52.441 1.076.535 1.649.104.624.162 1.255.174 1.887.003.283.003.588.003.89.008.375.008.732.008 1.092v20.929c0 .363 0 .718-.008 1.075 0 .325 0 .623-.004.93-.011.62-.069 1.24-.17 1.853a5.739 5.739 0 0 1-.54 1.67 5.48 5.48 0 0 1-1.016 1.386 5.413 5.413 0 0 1-1.4 1.022 5.862 5.862 0 0 1-1.668.55c-.618.101-1.243.156-1.869.163-.293.007-.6.011-.897.011l-1.084.002-101.69-.002z" fill="#000"></path><g fill="#FFF"><path d="M24.769 20.3a4.949 4.949 0 0 1 2.356-4.151 5.066 5.066 0 0 0-3.99-2.158c-1.68-.176-3.308 1.005-4.164 1.005-.872 0-2.19-.988-3.608-.958a5.315 5.315 0 0 0-4.473 2.728c-1.934 3.348-.491 8.269 1.361 10.976.927 1.325 2.01 2.805 3.428 2.753 1.387-.058 1.905-.885 3.58-.885 1.658 0 2.144.885 3.59.852 1.489-.025 2.426-1.332 3.32-2.67a10.962 10.962 0 0 0 1.52-3.092 4.782 4.782 0 0 1-2.92-4.4zM22.037 12.21a4.872 4.872 0 0 0 1.115-3.49 4.957 4.957 0 0 0-3.208 1.66A4.636 4.636 0 0 0 18.8 13.74a4.1 4.1 0 0 0 3.237-1.53z"></path><g><path d="M42.302 27.14H37.57l-1.137 3.356h-2.005l4.484-12.418h2.083l4.483 12.418h-2.039l-1.136-3.356zm-4.243-1.55h3.752l-1.85-5.446h-.051l-1.85 5.447zM55.16 25.97c0 2.813-1.506 4.62-3.779 4.62a3.07 3.07 0 0 1-2.848-1.583h-.043v4.484H46.63V21.442h1.8v1.506h.033a3.212 3.212 0 0 1 2.883-1.6c2.298 0 3.813 1.816 3.813 4.622zm-1.91 0c0-1.833-.948-3.038-2.393-3.038-1.42 0-2.375 1.23-2.375 3.038 0 1.824.955 3.046 2.375 3.046 1.445 0 2.393-1.197 2.393-3.046zM65.125 25.97c0 2.813-1.506 4.62-3.779 4.62a3.07 3.07 0 0 1-2.848-1.583h-.043v4.484h-1.859V21.442h1.799v1.506h.034a3.212 3.212 0 0 1 2.883-1.6c2.298 0 3.813 1.816 3.813 4.622zm-1.91 0c0-1.833-.948-3.038-2.393-3.038-1.42 0-2.375 1.23-2.375 3.038 0 1.824.955 3.046 2.375 3.046 1.445 0 2.392-1.197 2.392-3.046zM71.71 27.036c.138 1.232 1.334 2.04 2.97 2.04 1.566 0 2.693-.808 2.693-1.919 0-.964-.68-1.54-2.29-1.936l-1.609-.388c-2.28-.55-3.339-1.617-3.339-3.348 0-2.142 1.867-3.614 4.519-3.614 2.624 0 4.423 1.472 4.483 3.614h-1.876c-.112-1.239-1.136-1.987-2.634-1.987-1.497 0-2.521.757-2.521 1.858 0 .878.654 1.395 2.255 1.79l1.368.336c2.548.603 3.606 1.626 3.606 3.443 0 2.323-1.85 3.778-4.793 3.778-2.754 0-4.614-1.42-4.734-3.667h1.902zM83.346 19.3v2.142h1.722v1.472h-1.722v4.991c0 .776.345 1.137 1.102 1.137.204-.004.408-.018.611-.043v1.463c-.34.063-.686.092-1.032.086-1.833 0-2.548-.689-2.548-2.445v-5.189h-1.316v-1.472h1.316V19.3h1.867zM86.065 25.97c0-2.849 1.678-4.639 4.294-4.639 2.625 0 4.295 1.79 4.295 4.639 0 2.856-1.661 4.638-4.295 4.638-2.633 0-4.294-1.782-4.294-4.638zm6.695 0c0-1.954-.895-3.108-2.401-3.108-1.506 0-2.4 1.162-2.4 3.108 0 1.962.894 3.106 2.4 3.106 1.506 0 2.401-1.144 2.401-3.106zM96.186 21.442h1.773v1.541h.043a2.16 2.16 0 0 1 2.177-1.635c.214-.001.428.022.637.069v1.738a2.598 2.598 0 0 0-.835-.112 1.873 1.873 0 0 0-1.937 2.083v5.37h-1.858v-9.054zM109.384 27.837c-.25 1.643-1.85 2.771-3.898 2.771-2.634 0-4.269-1.764-4.269-4.595 0-2.84 1.644-4.682 4.19-4.682 2.506 0 4.08 1.72 4.08 4.466v.637h-6.394v.112a2.358 2.358 0 0 0 2.436 2.564 2.048 2.048 0 0 0 2.09-1.273h1.765zm-6.282-2.702h4.526a2.177 2.177 0 0 0-2.22-2.298 2.292 2.292 0 0 0-2.306 2.298z"></path></g></g></g><path d="M36.43 12.2h.874c.883 0 1.388.387 1.388 1.016 0 .62-.536 1.059-1.358 1.059-.821 0-1.38-.391-1.437-.998h-.944c.057 1.13 1.002 1.877 2.381 1.877 1.34 0 2.37-.8 2.37-1.885 0-.884-.59-1.45-1.412-1.534v-.075a1.473 1.473 0 0 0 1.152-1.45c0-1.006-.88-1.705-2.127-1.705-1.323 0-2.175.712-2.241 1.854h.931c.057-.62.54-.993 1.28-.993.746 0 1.186.378 1.186.963 0 .597-.493 1.01-1.196 1.01h-.848v.862zm6.05 2.084c.712 0 1.24-.453 1.24-1.046v-.4l-1.17.075c-.658.044-.957.268-.957.69 0 .43.373.68.887.68zm-.241.795c-.923 0-1.595-.558-1.595-1.433 0-.86.641-1.357 1.78-1.428l1.296-.074v-.414c0-.505-.334-.79-.98-.79-.528 0-.892.193-.998.531h-.914c.097-.822.87-1.349 1.956-1.349 1.2 0 1.876.598 1.876 1.608V15h-.91v-.672h-.074c-.286.479-.809.751-1.437.751zm5.827-4.14h-1.042v1.24h.936c.572 0 .844-.22.844-.624 0-.374-.237-.616-.738-.616zm-.04 1.934h-1.002v1.402h1.121c.558 0 .857-.246.857-.699 0-.479-.338-.703-.976-.703zM46.088 15v-4.786h2.158c.936 0 1.485.475 1.485 1.218 0 .483-.342.922-.808 1.01v.075c.62.07 1.024.523 1.024 1.103 0 .835-.629 1.38-1.679 1.38h-2.18zm6.671-.716c.712 0 1.24-.453 1.24-1.046v-.4l-1.17.075c-.659.044-.957.268-.957.69 0 .43.373.68.887.68zm-.241.795c-.923 0-1.596-.558-1.596-1.433 0-.86.642-1.357 1.78-1.428L54 12.144v-.414c0-.505-.334-.79-.98-.79-.528 0-.893.193-.998.531h-.914c.097-.822.87-1.349 1.956-1.349 1.2 0 1.876.598 1.876 1.608V15h-.91v-.672h-.074c-.286.479-.809.751-1.437.751zm7-.079h.94v-4.786h-.94v1.916h-2.206v-1.916h-.945V15h.945v-2.074h2.206V15zm5.963-4.786h-3.959v.796h1.507V15h.945v-3.99h1.507v-.796zm2.628 4.07c.712 0 1.24-.453 1.24-1.046v-.4l-1.17.075c-.658.044-.957.268-.957.69 0 .43.373.68.887.68zm-.241.795c-.923 0-1.596-.558-1.596-1.433 0-.86.642-1.357 1.78-1.428l1.297-.074v-.414c0-.505-.334-.79-.98-.79-.528 0-.892.193-.998.531h-.914c.097-.822.87-1.349 1.956-1.349 1.2 0 1.876.598 1.876 1.608V15h-.91v-.672h-.074c-.286.479-.809.751-1.437.751zM72.412 15l1.595-2.11h.246V15h.918v-2.11h.246L77.013 15h1.151l-1.99-2.566 1.889-2.22h-1.09l-1.56 1.96h-.242v-1.96h-.918v1.96h-.242l-1.56-1.96h-1.103l1.903 2.233L71.273 15h1.139zm7.69 0l2.21-3.31h.07V15h.937v-4.786h-.936l-2.206 3.292h-.075v-3.292h-.936V15h.936zm8.24-4.786h-3.96v.796h1.508V15h.944v-3.99h1.508v-.796zM90.337 15l2.21-3.31h.07V15h.937v-4.786h-.936l-2.206 3.292h-.075v-3.292H89.4V15h.936zm8.85.088c1.183 0 1.956-.602 1.956-1.512 0-.532-.316-.931-.936-1.076v-.075a.984.984 0 0 0 .756-.98c0-.809-.65-1.323-1.789-1.323-1.08 0-1.788.55-1.885 1.402h.91c.061-.378.448-.602.975-.602.58 0 .862.268.862.62 0 .4-.29.62-.862.62h-.703v.733h.716c.668 0 1.016.22 1.016.681 0 .43-.387.708-1.016.708-.553 0-.949-.22-1.041-.642h-.94c.087.967.936 1.446 1.981 1.446z" fill="#FFF"></path></g></svg>