<svg height="512" viewBox="0 0 512 512" width="512" xmlns="http://www.w3.org/2000/svg" xmlns:xlink="http://www.w3.org/1999/xlink"><defs><linearGradient id="a" x1="50%" x2="50%" y1="0%" y2="100%"><stop offset="0" stop-color="#ff8126"/><stop offset="1" stop-color="#ff117e"/></linearGradient><path id="b" d="m512 365.858544c0 50.816568-5.29106 69.243883-15.226564 87.821661s-24.515453 33.157727-43.093231 43.093231-37.005093 15.226564-87.821661 15.226564h-219.717088l-1.514812-.001587c-49.6703171-.104699-67.9148491-5.388828-86.3068491-15.224977-18.5777778-9.935504-33.1577265-24.515453-43.0932308-43.093231-9.93550426-18.577778-15.2265641-37.005093-15.2265641-87.821661v-219.717088l.00158667-1.514812c.10469897-49.6703171 5.38882821-67.9148491 15.22497743-86.3068491 9.9355043-18.5777778 24.515453-33.1577265 43.0932308-43.0932308 18.5777778-9.93550426 37.0050933-15.2265641 87.8216611-15.2265641h219.717088l1.514812.00158667c49.670317.10469897 67.914849 5.38882821 86.306849 15.22497743 18.577778 9.9355043 33.157727 24.515453 43.093231 43.0932308s15.226564 37.0050933 15.226564 87.8216611z"/><rect id="c" height="240.64" rx="10" width="413.013333"/><mask id="d" fill="#fff"><use fill="#fff" fill-rule="evenodd" xlink:href="#b"/></mask><mask id="e" fill="#fff"><use fill="#fff" fill-rule="evenodd" xlink:href="#c"/></mask></defs><g fill="none" fill-rule="evenodd"><use fill="url(#a)" xlink:href="#b"/><g mask="url(#d)"><path d="m178.504533 0h154.990934c51.400533 0 77.0944 0 104.763733 8.74666667 30.208 10.99520003 53.998933 34.78613333 64.994133 64.99413333 8.746667 27.665067 8.746667 53.367467 8.746667 104.763733v154.990934c0 51.400533 0 77.0944-8.746667 104.763733-10.9952 30.208-34.786133 53.998933-64.994133 64.989867-27.669333 8.750933-53.3632 8.750933-104.763733 8.750933h-154.990934c-51.400533 0-77.098666 0-104.763733-8.750933-30.208-10.990934-53.9989333-34.781867-64.99413333-64.989867-8.74666667-27.669333-8.74666667-53.3632-8.74666667-104.763733v-154.990934c0-51.396266 0-77.098666 8.74666667-104.763733 10.99520003-30.208 34.78613333-53.9989333 64.99413333-64.99413333 27.665067-8.74666667 53.3632-8.74666667 104.763733-8.74666667z" fill="#1ea3f1"/><path d="m0 0h512v512h-512z" fill="#40c1fa"/><path d="m479.000007 0-.000013 283.466667c0 40.949091 0 61.418538-7.619167 83.461774-9.577849 24.065707-30.301982 43.01915-56.615981 51.77526-24.102583 6.971577-46.484349 6.971577-91.259031 6.971577h-135.01163c-44.774682 0-67.160164 0-91.2590303-6.971577-26.3139993-8.75611-47.038132-27.709553-56.6159817-51.77526-7.6191665-22.043236-7.6191665-42.512683-7.6191665-83.461774v-283.466667z" fill="#48505b"/><circle cx="29.866667" cy="29.866667" fill="#ffd56a" r="29.866667" transform="translate(226 342)"/><g fill="#f6f7f3" transform="translate(343 349)"><circle cx="73.813333" cy="22.613333" r="22.613333"/><circle cx="17.066667" cy="23.04" r="17.066667"/></g><g fill="#f6f7f3" transform="translate(72 349)"><circle cx="22.613333" cy="22.613333" r="22.613333"/><circle cx="79.36" cy="23.04" r="17.066667"/></g><g transform="translate(49.493333 75.093333)"><use fill="#455c61" xlink:href="#c"/><rect fill="#96b7a7" height="104.96" mask="url(#e)" rx="10" width="343.04" x="34.986667" y="180.906667"/><path d="m330.24 209.685777c0-5.526038 4.478112-10.005777 10.005777-10.005777h43.135113c5.526038 0 10.005777 4.478112 10.005777 10.005777v43.135113c0 5.526038-4.478113 10.005777-10.005777 10.005777h-43.135113c-5.526038 0-10.005777-4.478113-10.005777-10.005777z" fill="#2a2b29" mask="url(#e)"/></g></g></g></svg>