<svg width="22px" height="15px" viewBox="0 0 22 15" version="1.1" xmlns="http://www.w3.org/2000/svg" xmlns:xlink="http://www.w3.org/1999/xlink">
	<g id="Main" stroke="none" stroke-width="1" fill="none" fill-rule="evenodd">
		<g id="Index" transform="translate(-156.000000, -796.000000)" fill="#48505B">
			<g id="Group-6" transform="translate(156.000000, 792.000000)">
				<g id="language-icon" transform="translate(0.000000, 4.000000)">
					<path d="M18.605,2 L18.605,-8.34887715e-14 L16.605,-8.34887715e-14 L16.605,2 L13.605,2 L13.605,4 L18.561,4 C18.51,4.609 18.414,5.213 18.27,5.808 C18.058,6.685 17.743,7.535 17.34,8.341 C17.214,8.191 17.092,8.038 16.973,7.884 C16.434,7.183 15.96,6.434 15.55,5.651 C15.532,5.615 15.513,5.579 15.494,5.543 L13.716,6.457 L13.775,6.572 L13.838,6.692 C14.498,7.926 15.297,9.096 16.246,10.128 C16.048,10.398 15.839,10.66 15.62,10.913 C15.199,11.4 14.741,11.854 14.251,12.271 C14.038,12.452 13.817,12.624 13.593,12.792 C13.46,12.888 13.46,12.888 13.326,12.982 C13.19,13.075 13.19,13.075 13.053,13.166 L14.157,14.834 C14.863,14.366 15.527,13.843 16.141,13.26 C16.712,12.718 17.238,12.13 17.714,11.504 C18.215,11.901 18.75,12.254 19.321,12.542 C19.63,12.697 19.948,12.829 20.274,12.944 L20.936,11.056 C20.726,10.983 20.521,10.901 20.321,10.805 C19.78,10.545 19.279,10.206 18.816,9.823 C19.401,8.781 19.855,7.666 20.157,6.507 C20.371,5.684 20.505,4.846 20.566,4 L21.605,4 L21.605,2 L18.605,2 Z" id="Path"></path>
					<path d="M5.605,3 L6.924,3 L11.21,13 L9.034,13 L8.176,11 L3.034,11 L2.605,12 L2.176,13 L-8.8817842e-16,13 L4.286,3 L5.605,3 Z M3.891,9 L7.319,9 L5.605,5 L3.891,9 Z" id="Combined-Shape"></path>
				</g>
			</g>
		</g>
	</g>
</svg>